<?xml version="1.0" encoding="UTF-8"?>
<svg id="Layer_1" data-name="Layer 1" xmlns="http://www.w3.org/2000/svg" viewBox="0 0 508 80">
  <defs>
    <style>
      .cls-1 {
        fill: #00c88c;
        stroke-width: 0px;
      }
    </style>
  </defs>
  <g>
    <path class="cls-1" d="m148.57,28.01c-3.28,0-6.42.72-9.43,2.16-2.8,1.35-5.23,3.21-7.3,5.55-.69-2.12-1.89-3.89-3.64-5.25-2.11-1.64-5.09-2.46-8.95-2.46-3.37,0-6.58.75-9.63,2.23-2.34,1.14-4.41,2.6-6.23,4.36l.02-.09c.61-2.73-1.47-5.32-4.27-5.32h-5.48l-10.91,49.19h12.48l6.61-29.78h0c.63-2.82,1.92-5.13,3.88-6.9,1.96-1.78,4.22-2.67,6.8-2.67,2.71,0,4.63.9,5.75,2.71,1.13,1.81,1.34,4.34.62,7.58l-6.45,29.06h12.39l6.61-29.78c.42-1.88,1.14-3.55,2.17-4.99,1.04-1.44,2.28-2.56,3.74-3.37,1.45-.8,3.05-1.21,4.77-1.21,2.71,0,4.62.9,5.75,2.71,1.13,1.81,1.34,4.34.62,7.58l-6.45,29.06h12.39l7.18-32.33c1.19-5.37.72-9.73-1.41-13.05-2.13-3.32-6.01-4.99-11.62-4.99Z"/>
    <path class="cls-1" d="m211.01,31.15c-3.26-2.22-7.36-3.32-12.31-3.32s-9.4,1.09-13.62,3.28c-4.21,2.19-7.82,5.23-10.81,9.13-2.99,3.9-5.06,8.42-6.19,13.55-1.13,5.07-1.08,9.56.13,13.46,1.22,3.9,3.44,6.96,6.69,9.18,3.24,2.22,7.33,3.32,12.29,3.32s9.5-1.1,13.73-3.3c4.24-2.2,7.84-5.25,10.82-9.15,2.98-3.9,5.03-8.4,6.16-13.51,1.13-5.07,1.08-9.55-.16-13.46-1.23-3.9-3.47-6.96-6.73-9.18Zm-5.43,22.63c-.94,4.22-2.69,7.68-5.24,10.36s-6.61,4.03-10.59,4.03-7.28-1.3-8.7-3.89c-1.41-2.6-1.63-6.1-.65-10.5.63-2.85,1.6-5.36,2.92-7.51,1.32-2.16,2.97-3.84,4.97-5.06,2-1.22,5.15-1.82,7.85-1.82,3.92,0,7.38,1.31,8.79,3.92,1.41,2.61,1.63,6.1.66,10.47Z"/>
    <path class="cls-1" d="m288.2,28.01c-3.28,0-6.42.72-9.43,2.16-2.8,1.35-5.23,3.21-7.3,5.55-.69-2.12-1.89-3.89-3.64-5.25-2.11-1.64-5.09-2.46-8.95-2.46-3.37,0-6.58.75-9.63,2.23-2.34,1.14-4.41,2.6-6.23,4.36l.02-.09c.61-2.73-1.47-5.32-4.27-5.32h-5.48l-10.92,49.19h12.48l6.61-29.78c.63-2.82,1.92-5.13,3.88-6.9,1.96-1.78,4.22-2.67,6.8-2.67,2.71,0,4.63.9,5.75,2.71,1.13,1.81,1.34,4.34.62,7.58l-6.45,29.06h12.39l6.61-29.78c.42-1.88,1.14-3.55,2.17-4.99,1.04-1.44,2.28-2.56,3.73-3.37,1.45-.8,3.05-1.21,4.78-1.21,2.71,0,4.62.9,5.75,2.71,1.13,1.81,1.34,4.34.62,7.58l-6.45,29.06h12.39l7.18-32.33c1.19-5.37.72-9.73-1.41-13.05s-6.01-4.99-11.62-4.99Z"/>
    <path class="cls-1" d="m350.7,31.47c-3.08-2.43-7.2-3.64-12.36-3.64-4.86,0-9.4,1.1-13.62,3.3-4.22,2.2-7.84,5.29-10.84,9.27-3.01,3.98-5.11,8.65-6.3,14.03-1.09,4.92-.98,9.28.35,13.09s3.66,6.8,7.02,8.97c3.36,2.17,7.56,3.26,12.6,3.26,4.74,0,9.38-1.25,13.93-3.74,4.54-2.49,8.24-5.98,11.09-10.47l-11.61-3.55c-1.35,2.01-3.02,3.54-4.98,4.6-1.97,1.06-4.16,1.59-6.6,1.59-3.85,0-6.5-1.25-7.94-3.75-1.05-1.83-1.42-4.23-1.16-7.18h34.52c1.83-5.95,2.38-11.13,1.62-15.53-.75-4.4-2.67-7.82-5.74-10.25Zm-28,16.58c.99-2.26,2.18-4.16,3.64-5.62,2.56-2.57,5.95-3.85,10.17-3.85,3.61,0,5.98,1.1,7.08,3.3.73,1.45.96,3.51.73,6.17h-21.62Z"/>
    <path class="cls-1" d="m410.68,34.66c-.9-2.01-2.43-3.66-4.57-4.97-2.14-1.3-5.14-1.96-8.99-1.96-4.83,0-9.06,1.04-12.7,3.14-1.72.99-3.29,2.14-4.72,3.43.46-2.65-1.56-5.12-4.29-5.12h-5.57l-10.92,49.19h12.57l5.54-24.96h0c.68-3.07,1.57-5.53,2.66-7.38,1.09-1.85,2.28-3.26,3.55-4.21,1.27-.96,2.56-1.6,3.85-1.93,1.29-.33,2.46-.5,3.53-.5,2.64,0,4.55.59,5.73,1.78,1.18,1.18,1.89,2.66,2.14,4.42.25,1.76.24,3.51-.03,5.26-.27,1.75-.53,3.18-.78,4.3l-5.15,23.23h12.57l6.12-27.6c.18-.82.41-2.12.68-3.91.28-1.79.37-3.77.27-5.94-.1-2.17-.6-4.26-1.5-6.26Z"/>
    <path class="cls-1" d="m437.03,56.79l4-18.03h14.2l2.12-9.56h-14.2l1.35-6.07c.87-3.9-2.1-7.6-6.1-7.6h-4.61l-3.03,13.66h-8.38l-2.12,9.56h8.38l-4.16,18.77c-.65,2.95-1.21,5.58-1.66,7.9-.46,2.32-.33,4.61.39,6.85.8,2.4,2.37,4.14,4.69,5.21,2.33,1.08,5.12,1.66,8.36,1.73,3.24.08,6.64-.2,10.18-.84l2.28-10.29c-3,.39-5.68.52-8.05.36-2.36-.15-3.9-1.09-4.61-2.82-.38-.91-.42-2.13-.12-3.67.3-1.53.66-3.25,1.08-5.17Z"/>
    <path class="cls-1" d="m507.04,40.33c-1.23-3.9-3.47-6.96-6.73-9.18-3.26-2.22-7.36-3.32-12.31-3.32s-9.4,1.09-13.62,3.28c-4.21,2.19-7.82,5.23-10.81,9.13-2.99,3.9-5.06,8.42-6.19,13.55-1.13,5.07-1.08,9.56.13,13.46,1.22,3.9,3.44,6.96,6.69,9.18,3.24,2.22,7.33,3.32,12.29,3.32s9.5-1.1,13.73-3.3c4.24-2.2,7.84-5.25,10.82-9.15,2.98-3.9,5.03-8.4,6.16-13.51,1.13-5.07,1.08-9.55-.16-13.46Zm-12.16,13.46c-.94,4.22-2.69,7.68-5.24,10.36s-6.61,4.03-10.59,4.03-7.28-1.3-8.7-3.89c-1.41-2.6-1.63-6.1-.65-10.5.63-2.85,1.6-5.36,2.92-7.51,1.32-2.16,2.97-3.84,4.97-5.06,2-1.22,5.15-1.82,7.85-1.82,3.92,0,7.38,1.31,8.79,3.92,1.41,2.61,1.63,6.1.66,10.47Z"/>
  </g>
  <path class="cls-1" d="m64.47,22.51l-10.35-3.45-1.42-3.41c-.51-1.23-2.28-1.16-2.7.11l-15.87,48.67h0s-.89,2.74-.89,2.74c-.39,1.2-1.51,2.01-2.77,2.01h0,0c-1.89,0-3.26-1.76-2.84-3.56.02-.09.04-.17.07-.26l12.44-38.17c1.88-5.78,1.07-11.63-1.59-16.39-.04-.08-.09-.16-.14-.24-.67-1.16-1.45-2.25-2.32-3.26-.37-.43-.76-.84-1.16-1.23,0,0,0,0,0,0-.16-.15-.31-.3-.47-.45-.25-.23-.51-.46-.77-.68-.05-.04-.11-.09-.16-.13C30.01,1.99,25.55.25,20.57.25c-.2,0-.41,0-.61,0-.06,0-.12,0-.19,0-.14,0-.29.01-.43.02-.07,0-.14,0-.2.01-.15.01-.3.02-.44.04-.05,0-.11,0-.16.01-.2.02-.4.04-.6.07-.02,0-.03,0-.05,0-.18.02-.36.05-.55.08-.05,0-.11.02-.16.03-.15.02-.3.05-.44.08-.05.01-.11.02-.16.03-.17.03-.33.07-.5.1-.03,0-.06.01-.08.02-.2.05-.4.09-.6.15,0,0-.01,0-.02,0-.19.05-.37.1-.56.15-.04.01-.07.02-.11.03-.16.05-.33.1-.49.15-.03,0-.06.02-.09.03-.59.19-1.17.42-1.73.66,0,0-.02,0-.03.01C5.08,5.13,0,12.38,0,20.82v2.41c5.08,0,9.19,4.12,9.19,9.19v29.71c0,8.97,7.27,16.25,16.25,16.25h0c4.04,0,7.92-1.52,10.9-4.23v.02c.36-.32.59-.04.49.3h0c-.03.16-.05.32-.06.49,0,0,0,0,0,0,0,.05,0,.1,0,.15h0v.07c0,1.79,1.46,3.22,3.25,3.18h0s19.73,0,19.73,0h4.6c0-1.99-1.26-3.68-3.03-4.32-.49-.18-1.02-.28-1.57-.28h-3.83c-.44,0-.36-.57.07-.72l3.56-1.3c4.25-1.55,7.09-5.59,7.09-10.12,0-3.86-2.07-7.43-5.42-9.35l-1.47-.84v-.66c2.54,0,4.6-2.06,4.6-4.6v-.19c0-2.43-2.16-4.41-4.6-4.41v-6.28l6.18-5.84s.06-.05.08-.08c.41-.43.63-.99.63-1.58h0v-2.31c0-1.36-.87-2.57-2.17-3Z"/>
</svg>