<?xml version="1.0" encoding="UTF-8"?>
<svg xmlns:xlink="http://www.w3.org/1999/xlink" id="Layer_1" data-name="Layer 1" xmlns="http://www.w3.org/2000/svg" viewBox="0 0 250 250">
  <defs>
    <style>
      .cls-1 {
        fill: url(#linear-gradient);
      }

      .cls-1, .cls-2, .cls-3, .cls-4, .cls-5, .cls-6 {
        stroke-width: 0px;
      }

      .cls-2 {
        fill: url(#linear-gradient-2);
      }

      .cls-3 {
        fill: #117050;
      }

      .cls-4 {
        fill: #fff;
      }

      .cls-5 {
        fill: #03a876;
      }

      .cls-6 {
        fill: #00c88c;
      }
    </style>
    <linearGradient id="linear-gradient" x1="119.73" y1="22.97" x2="129.27" y2="-16.64" gradientUnits="userSpaceOnUse">
      <stop offset=".21" stop-color="#117050"/>
      <stop offset=".32" stop-color="#03a876"/>
    </linearGradient>
    <linearGradient id="linear-gradient-2" x1="73.41" y1="103.46" x2="94.31" y2="6.16" xlink:href="#linear-gradient"/>
  </defs>
  <path class="cls-5" d="m202.5,50.33c.23,0,.47.01.7.02.14,0,.28.02.41.03.25.02.5.05.75.09.12.02.23.03.35.05.36.06.72.13,1.08.22l-29.02-7.29c-.36-.09-.72-.16-1.08-.22-.12-.02-.23-.03-.35-.05-.25-.04-.49-.07-.74-.09-.14-.01-.28-.02-.42-.03-.23-.01-.46-.02-.7-.02-.14,0-.29,0-.43,0-.09,0-.18,0-.27,0-.24,0-.48.02-.72.05l-54.16,4.75,29.02,7.29,54.16-4.75c.33-.03.66-.04.99-.05.14,0,.28,0,.43,0Z"/>
  <polygon class="cls-3" points="131.62 56.47 102.6 49.18 102.3 10.74 131.32 18.03 131.62 56.47"/>
  <path class="cls-1" d="m143.04,11.62h0s0,0,0,0l-29.02-7.29c-.21-.05-.43-.09-.66-.11-.07,0-.15,0-.22,0-.12,0-.24-.02-.36,0-.06,0-.13,0-.19.01l-5.36.47h0s0,0,0,0c-.18.02-.37.05-.54.08-.06.01-.12.03-.17.05-.12.03-.24.06-.35.1-.02,0-.04.01-.06.02-.02,0-.05.02-.07.03-.26.09-.51.21-.75.34-.01,0-.02.01-.03.02-.24.14-.46.29-.68.47-.02.01-.04.02-.05.04,0,0-.01.01-.02.02-.29.24-.56.51-.8.81,0,0,0,0,0,0,0,0-.01.02-.02.03-.22.27-.41.56-.58.87,0,0,0,.01-.01.02,0,.01-.01.03-.02.04-.18.33-.33.68-.45,1.04,0,.02-.02.03-.02.05,0,.03-.01.05-.02.08-.09.28-.16.57-.21.87,0,.04,0,.07-.01.11-.05.32-.07.64-.07.97l29.02,7.29c0-.33.02-.65.07-.97,0-.04,0-.07.01-.11.05-.3.12-.59.21-.87.01-.04.03-.09.04-.13.12-.36.27-.71.45-1.04.01-.02.02-.04.03-.06.17-.31.37-.6.58-.87,0-.01.02-.02.02-.03.24-.3.51-.57.8-.81.02-.02.05-.04.07-.05.22-.17.44-.33.68-.47.01,0,.02-.01.03-.02.24-.14.49-.25.75-.34.04-.02.09-.03.13-.05.12-.04.24-.07.35-.1.06-.01.12-.03.17-.05.18-.04.36-.07.55-.08l5.36-.47c.19-.02.37,0,.55,0,.07,0,.15,0,.22,0,.22.02.44.05.66.11Z"/>
  <path class="cls-3" d="m135.05,245.18c-.8-.47-1.55-1.06-2.23-1.76h0l-7.28-7.54h.02c-.1-.1-.2-.19-.3-.29l-.16-.17h-.01c-2.05-2-4.41-3.51-7.02-4.44-11.53-4.21-21.47-12.36-28.5-23.38-7.05-11.04-10.85-24.42-10.96-38.47l-.42-52.86-29.02-7.29.42,52.86c.11,14.05,3.91,27.43,10.96,38.47,7.02,11.02,16.97,19.17,28.5,23.38,2.68.96,5.1,2.53,7.19,4.61l7.57,7.83c1.35,1.4,2.99,2.36,4.77,2.8l29.02,7.29c-.89-.22-1.75-.57-2.55-1.04Z"/>
  <path class="cls-3" d="m66.19,111.33c-3.11-3.24-4.88-7.85-4.92-12.8l-.14-17.13-29.02-7.29.14,17.13c.04,4.95,1.82,9.56,4.92,12.8,1.74,1.8,3.82,3.1,6.05,3.83.32.1.64.2.96.28l29.02,7.29c-2.59-.65-5.02-2.05-7.01-4.11Z"/>
  <path class="cls-2" d="m68.44,65.09c.37-.31.75-.6,1.13-.87.06-.04.11-.09.16-.12.45-.31.91-.59,1.37-.86.14-.08.29-.15.44-.23.33-.17.66-.34.99-.49.18-.08.37-.15.56-.23.33-.13.67-.27,1.01-.38.09-.03.18-.06.26-.08.46-.14.92-.26,1.39-.36.08-.02.16-.03.24-.04.49-.09.98-.17,1.48-.21l54.14-4.75-29.02-7.29-54.14,4.75c-.5.04-.99.12-1.48.21-.08.02-.16.03-.24.04-.47.1-.93.22-1.39.36-.09.03-.18.06-.27.08-.12.04-.25.08-.37.12-.21.08-.42.17-.63.26-.19.08-.38.15-.56.23-.33.15-.66.32-.99.49-.15.08-.29.14-.44.23-.47.26-.93.55-1.37.86-.05.04-.1.08-.15.12-.36.25-.71.52-1.06.8-.03.02-.05.05-.08.08-.31.26-.61.54-.9.83-.15.14-.3.27-.45.41-.43.44-.85.9-1.25,1.39-.01.02-.03.03-.04.05-.22.27-.41.56-.61.84-.14.2-.3.39-.44.6-.22.32-.41.66-.61,1-.11.19-.23.36-.33.55,0,0,0,0,0,.01-.03.05-.05.1-.07.14-.28.52-.54,1.06-.78,1.6-.09.2-.16.41-.24.62-.16.4-.32.8-.45,1.22-.02.07-.06.14-.08.21-.08.25-.14.5-.21.75-.07.24-.14.48-.2.73-.09.35-.15.7-.22,1.06-.04.23-.1.46-.14.7-.06.39-.1.79-.15,1.19-.02.2-.05.4-.07.6-.05.6-.07,1.2-.06,1.8l29.02,7.29c0-.6.02-1.2.06-1.8.02-.2.05-.4.07-.59.04-.4.08-.8.15-1.19.04-.24.09-.47.14-.7.07-.35.14-.71.22-1.06.06-.25.13-.49.2-.73.09-.32.18-.64.29-.96.14-.41.29-.81.45-1.21.08-.21.16-.42.24-.62.24-.55.5-1.08.78-1.6.03-.05.05-.1.08-.16.1-.19.22-.36.33-.55.2-.34.39-.68.61-1.01.14-.2.29-.39.43-.59.22-.3.43-.61.66-.9.4-.49.82-.95,1.25-1.39.14-.15.3-.28.45-.42.3-.28.59-.57.9-.82Z"/>
  <path class="cls-6" d="m141.61,11.5c2.73-.24,4.98,2.07,5,5.18l.3,38.44,54.16-4.75c2.16-.19,4.3.1,6.33.88,2,.76,3.85,1.98,5.39,3.57,1.54,1.6,2.78,3.56,3.62,5.75.86,2.21,1.31,4.6,1.33,7.07l.14,17.13c.04,4.95-1.66,9.86-4.74,13.65-3.05,3.78-7.24,6.12-11.61,6.5l.61,52.85c.11,14.05-3.49,28.07-10.33,40.34-6.86,12.24-16.64,22.12-28.09,28.34-2.79,1.5-5.31,3.61-7.43,6.22l-7.59,9.35c-2.1,2.58-4.93,4.19-7.91,4.45-2.98.26-5.84-.85-7.97-3.05l-7.73-8c-2.16-2.23-4.69-3.9-7.49-4.91-11.53-4.21-21.47-12.36-28.5-23.38-7.05-11.04-10.85-24.42-10.96-38.47l-.42-52.86c-4.18.37-8.4-1.23-11.53-4.47-3.11-3.24-4.88-7.85-4.92-12.8l-.14-17.13c-.04-4.98,1.66-9.89,4.71-13.67,3.07-3.78,7.26-6.12,11.64-6.5l54.14-4.75-.3-38.44c-.02-3.11,2.19-5.81,4.94-6.05,0,0,5.36-.47,5.36-.47Z"/>
  <polygon class="cls-4" points="156.95 109.24 132 110.49 113.81 153.1 139.31 152.04 126.54 196.95 171.29 134.78 144.63 135.71 156.95 109.24"/>
</svg>
