<?xml version="1.0" encoding="UTF-8"?>
<svg id="Layer_1" data-name="Layer 1" xmlns="http://www.w3.org/2000/svg" xmlns:xlink="http://www.w3.org/1999/xlink" viewBox="0 0 250 250">
  <defs>
    <style>
      .cls-1 {
        fill: url(#linear-gradient);
      }

      .cls-1, .cls-2, .cls-3, .cls-4 {
        stroke-width: 0px;
      }

      .cls-2 {
        fill: #117050;
      }

      .cls-3 {
        fill: #fff;
      }

      .cls-4 {
        fill: #00c88c;
      }
    </style>
    <linearGradient id="linear-gradient" x1="102.62" y1="139.3" x2="154.8" y2="-73.66" gradientUnits="userSpaceOnUse">
      <stop offset=".21" stop-color="#117050"/>
      <stop offset=".26" stop-color="#03a876"/>
    </linearGradient>
  </defs>
  <path class="cls-2" d="m227.85,42.77l-24.09-6.05c-1.75-.37-3.6-.5-5.52-.33L27.68,51.34c-10.54.92-19.09,10.22-19.09,20.76v117.05c0,8.26,5.25,14.83,12.59,16.85h0s24.09,6.05,24.09,6.05l15.06-6.69v26.92c0,3.24,2.11,5.79,5.03,6.48h0s24.09,6.05,24.09,6.05l31.81-46.45,76.97-6.74c10.54-.92,19.09-10.22,19.09-20.76V58.13l10.52-15.36Z"/>
  <path class="cls-1" d="m217.32,124.5V58.13l10.52-15.36-24.09-6.05c-1.75-.37-3.6-.5-5.52-.33L27.68,51.34c-10.54.92-19.09,10.22-19.09,20.76l208.73,52.41Z"/>
  <g>
    <path class="cls-4" d="m222.32,42.44l-170.56,14.95c-10.54.92-19.09,10.22-19.09,20.76v117.05c0,10.54,8.55,18.34,19.09,17.42l32.65-2.86v28.58c0,4.02,3.26,6.99,7.28,6.64,2.36-.21,4.58-1.55,5.94-3.6l23.15-34.8,101.54-8.9c10.54-.92,19.09-10.22,19.09-20.76V59.86c0-8.62-5.72-15.41-13.57-17.09-1.75-.37-3.6-.5-5.52-.33Z"/>
    <path class="cls-3" d="m167.58,111.96c0,1.71-.68,3.41-1.88,4.72-1.21,1.31-2.84,2.14-4.55,2.29h.08s0,18.19,0,18.19c0,4.84-1.45,9.69-4.15,13.93-2.71,4.24-6.55,7.68-11.03,9.87-1.09.53-2.08,1.27-2.91,2.17l-2.99,3.26c-.82.89-1.94,1.45-3.1,1.56s-2.28-.26-3.1-1.01l-2.99-2.73c-.83-.76-1.82-1.32-2.91-1.66-4.48-1.41-8.33-4.17-11.03-7.94-2.71-3.77-4.15-8.37-4.15-13.21v-18.2h.08c-1.71.14-3.34-.39-4.55-1.5-1.21-1.1-1.88-2.68-1.88-4.39v-5.9c0-1.71.68-3.41,1.88-4.72,1.21-1.31,2.84-2.14,4.55-2.29l19.48-1.71v-13.25c0-1.07.87-2.01,1.93-2.1l5.37-.47c1.07-.09,1.93.7,1.93,1.76v13.25l19.47-1.71c.85-.08,1.68.02,2.47.27.78.25,1.49.67,2.09,1.21s1.07,1.22,1.4,1.97c.32.75.49,1.58.49,2.43v5.9Z"/>
  </g>
</svg>