<?xml version="1.0" encoding="UTF-8"?>
<svg id="Layer_1" data-name="Layer 1" xmlns="http://www.w3.org/2000/svg" viewBox="0 0 66.64 78.13">
  <defs>
    <style>
      .cls-1 {
        fill: #00c88c;
        stroke-width: 0px;
      }
    </style>
  </defs>
  <path class="cls-1" d="m64.47,22.26l-10.35-3.45-1.42-3.41c-.51-1.23-2.28-1.16-2.7.11l-15.87,48.67h0s-.89,2.74-.89,2.74c-.39,1.2-1.51,2.01-2.77,2.01h0,0c-1.89,0-3.26-1.76-2.84-3.56.02-.09.04-.17.07-.26l12.44-38.17c1.88-5.78,1.07-11.63-1.59-16.39-.04-.08-.09-.16-.14-.24-.67-1.16-1.45-2.25-2.32-3.26-.37-.43-.76-.84-1.16-1.23,0,0,0,0,0,0-.16-.15-.31-.3-.47-.45-.25-.23-.51-.46-.77-.68-.05-.04-.11-.09-.16-.13C30.01,1.73,25.55,0,20.57,0c-.2,0-.41,0-.61,0-.06,0-.12,0-.19,0-.14,0-.29.01-.43.02-.07,0-.14,0-.2.01-.15.01-.3.02-.44.04-.05,0-.11,0-.16.01-.2.02-.4.04-.6.07-.02,0-.03,0-.05,0-.18.02-.36.05-.55.08-.05,0-.11.02-.16.03-.15.02-.3.05-.44.08-.05.01-.11.02-.16.03-.17.03-.33.07-.5.1-.03,0-.06.01-.08.02-.2.05-.4.09-.6.15,0,0-.01,0-.02,0-.19.05-.37.1-.56.15-.04.01-.07.02-.11.03-.16.05-.33.1-.49.15-.03,0-.06.02-.09.03-.59.19-1.17.42-1.73.66,0,0-.02,0-.03.01C5.08,4.88,0,12.13,0,20.57v2.41c5.08,0,9.19,4.12,9.19,9.19v29.71c0,8.97,7.27,16.25,16.25,16.25h0c4.04,0,7.92-1.52,10.9-4.23v.02c.36-.32.59-.04.49.3h0c-.03.16-.05.32-.06.49,0,0,0,0,0,0,0,.05,0,.1,0,.15h0v.07c0,1.79,1.46,3.22,3.25,3.18h0s19.73,0,19.73,0h4.6c0-1.99-1.26-3.68-3.03-4.32-.49-.18-1.02-.28-1.57-.28h-3.83c-.44,0-.36-.57.07-.72l3.56-1.3c4.25-1.55,7.09-5.59,7.09-10.12,0-3.86-2.07-7.43-5.42-9.35l-1.47-.84v-.66c2.54,0,4.6-2.06,4.6-4.6v-.19c0-2.43-2.16-4.41-4.6-4.41v-6.28l6.18-5.84s.06-.05.08-.08c.41-.43.63-.99.63-1.58h0v-2.31c0-1.36-.87-2.57-2.17-3Z"/>
</svg>